<svg width="1554" height="964" viewBox="0 0 1554 964" fill="none" xmlns="http://www.w3.org/2000/svg">
<path d="M1021.57 491.502L1027.63 494.671L1024.58 519.283L1017.93 520.877L1021.57 491.502ZM1046.13 509.298L1025.22 497.194L1023.87 496.382L1005.36 485.704L1006.3 478.162L1061.45 511.197L999.9 529.767L1000.83 522.225L1020.89 516.488L1022.56 516.05L1046.13 509.298Z" fill="black"/>
<path d="M1021.59 491.655L1027.65 494.824L1024.6 519.436L1017.95 521.03L1021.59 491.655ZM1046.15 509.451L1025.24 497.347L1023.89 496.535L1005.38 485.857L1006.32 478.315L1061.47 511.35L999.923 529.92L1000.86 522.378L1020.92 516.641L1022.58 516.203L1046.15 509.451Z" fill="black"/>
<path d="M1011.48 551.733L1016.56 556.305L1007.5 579.391L1000.67 579.287L1011.48 551.733ZM1030.86 575.064L1013.6 558.152L1012.5 557.03L997.218 542.096L999.994 535.021L1045.23 580.704L980.998 583.427L983.774 576.352L1004.63 575.77L1006.35 575.759L1030.86 575.064Z" fill="black"/>
<path d="M1011.51 551.886L1016.59 556.458L1007.53 579.544L1000.69 579.44L1011.51 551.886ZM1030.88 575.217L1013.63 558.305L1012.52 557.183L997.241 542.249L1000.02 535.174L1045.26 580.857L981.021 583.58L983.797 576.505L1004.65 575.923L1006.37 575.912L1030.88 575.217Z" fill="black"/>
<path d="M986.573 607.817L990.357 613.509L975.842 633.617L969.248 631.818L986.573 607.817ZM999.539 635.233L987.032 614.562L986.239 613.2L975.151 594.936L979.6 588.773L1012.06 644.27L949.165 630.936L953.613 624.774L973.957 629.395L975.628 629.813L999.539 635.233Z" fill="black"/>
<path d="M986.596 607.97L990.38 613.662L975.865 633.77L969.271 631.971L986.596 607.97ZM999.562 635.386L987.055 614.715L986.262 613.353L975.175 595.089L979.623 588.926L1012.08 644.423L949.188 631.089L953.636 624.927L973.98 629.548L975.651 629.966L999.562 635.386Z" fill="black"/>
<path d="M948.58 655.848L950.855 662.294L931.858 678.235L925.905 674.875L948.58 655.848ZM954.438 685.605L947.373 662.5L946.938 660.986L940.661 640.562L946.483 635.677L964.363 697.432L906.649 669.103L912.471 664.217L931.064 673.68L932.583 674.494L954.438 685.605Z" fill="black"/>
<path d="M948.603 656.001L950.878 662.447L931.881 678.388L925.928 675.028L948.603 656.001ZM954.461 685.758L947.397 662.653L946.961 661.139L940.684 640.715L946.506 635.83L964.386 697.585L906.672 669.256L912.494 664.37L931.087 673.833L932.606 674.647L954.461 685.758Z" fill="black"/>
<path d="M899.829 693.181L900.416 699.991L878.03 710.663L873.109 705.919L899.829 693.181ZM898.043 723.456L896.994 699.319L896.952 697.743L895.993 676.398L902.854 673.128L904.687 737.394L855.914 695.504L862.775 692.234L878.403 706.054L879.669 707.223L898.043 723.456Z" fill="black"/>
<path d="M899.852 693.334L900.439 700.144L878.053 710.816L873.132 706.072L899.852 693.334ZM898.066 723.609L897.017 699.472L896.975 697.896L896.016 676.551L902.877 673.281L904.71 737.547L855.938 695.657L862.798 692.387L878.426 706.207L879.692 707.376L898.066 723.609Z" fill="black"/>
<path d="M843.472 717.122L842.34 723.863L817.997 728.602L814.418 722.779L843.472 717.122ZM834.178 745.99L839.194 722.356L839.547 720.821L843.952 699.913L851.412 698.461L837.129 761.146L800.371 708.399L807.831 706.946L819.51 724.233L820.444 725.681L834.178 745.99Z" fill="black"/>
<path d="M843.495 717.275L842.363 724.016L818.02 728.755L814.441 722.932L843.495 717.275ZM834.201 746.143L839.217 722.509L839.57 720.974L843.976 700.066L851.435 698.614L837.152 761.299L800.394 708.552L807.854 707.099L819.533 724.386L820.467 725.834L834.201 746.143Z" fill="black"/>
<path d="M781.904 726.216L779.138 732.467L754.379 731.032L752.354 724.504L781.904 726.216ZM765.752 751.885L776.463 730.228L777.185 728.828L786.63 709.662L794.217 710.102L764.859 767.299L742.304 707.094L749.891 707.533L756.927 727.173L757.473 728.807L765.752 751.885Z" fill="black"/>
<path d="M781.927 726.369L779.161 732.62L754.403 731.185L752.377 724.657L781.927 726.369ZM765.775 752.038L776.486 730.381L777.208 728.981L786.653 709.815L794.24 710.255L764.882 767.452L742.327 707.247L749.914 707.686L756.95 727.326L757.497 728.96L765.775 752.038Z" fill="black"/>
<path d="M721.018 719.975L716.78 725.337L693.162 717.771L692.829 710.944L721.018 719.975ZM698.973 740.802L714.748 722.502L715.797 721.326L729.724 705.123L736.962 707.442L694.262 755.506L687.441 691.577L694.679 693.895L696.592 714.67L696.713 716.389L698.973 740.802Z" fill="black"/>
<path d="M721.041 720.128L716.803 725.49L693.186 717.924L692.853 711.097L721.041 720.128ZM698.996 740.955L714.771 722.655L715.82 721.479L729.748 705.276L736.985 707.595L694.285 755.659L687.465 691.73L694.702 694.048L696.615 714.823L696.737 716.542L698.996 740.955Z" fill="black"/>
<path d="M663.705 698.749L658.275 702.9L637.254 689.741L638.615 683.043L663.705 698.749ZM637.203 713.493L657.005 699.651L658.312 698.77L675.806 686.504L682.248 690.537L629.01 726.581L638.172 662.945L644.614 666.977L641.343 687.581L641.036 689.277L637.203 713.493Z" fill="black"/>
<path d="M663.728 698.902L658.298 703.053L637.277 689.894L638.639 683.196L663.728 698.902ZM637.226 713.646L657.028 699.804L658.335 698.923L675.829 686.657L682.271 690.69L629.033 726.734L638.195 663.098L644.637 667.13L641.366 687.735L641.059 689.43L637.226 713.646Z" fill="black"/>
<path d="M613.306 663.947L607.013 666.616L589.929 648.639L592.914 642.491L613.306 663.947ZM583.968 671.632L606.592 663.153L608.077 662.625L628.074 655.099L633.309 660.608L572.776 682.268L597.487 622.915L602.722 628.424L594.426 647.566L593.707 649.132L583.968 671.632Z" fill="black"/>
<path d="M613.329 664.1L607.036 666.769L589.952 648.792L592.938 642.644L613.329 664.1ZM583.991 671.785L606.615 663.306L608.1 662.778L628.097 655.252L633.332 660.761L572.799 682.421L597.51 623.068L602.745 628.577L594.449 647.719L593.731 649.285L583.991 671.785Z" fill="black"/>
<path d="M573.205 617.945L566.45 618.985L554.311 597.359L558.717 592.133L573.205 617.945ZM542.879 618.179L566.893 615.525L568.462 615.379L589.696 613.001L593.416 619.628L529.414 625.736L567.963 574.283L571.683 580.911L558.934 597.424L557.853 598.765L542.879 618.179Z" fill="black"/>
<path d="M573.228 618.098L566.473 619.138L554.334 597.512L558.74 592.286L573.228 618.098ZM542.902 618.332L566.916 615.678L568.485 615.532L589.719 613.154L593.439 619.781L529.438 625.889L567.987 574.436L571.706 581.064L558.958 597.577L557.876 598.918L542.902 618.332Z" fill="black"/>
<path d="M545.503 563.041L538.703 562.347L532.398 538.362L537.978 534.413L545.503 563.041ZM516.093 555.634L540.003 559.11L541.558 559.363L562.707 562.406L564.639 569.757L501.161 559.559L551.419 519.465L553.351 526.815L536.856 539.588L535.472 540.614L516.093 555.634Z" fill="black"/>
<path d="M545.526 563.194L538.726 562.5L532.421 538.515L538.001 534.566L545.526 563.194ZM516.117 555.787L540.026 559.263L541.581 559.516L562.73 562.559L564.662 569.91L501.184 559.712L551.442 519.618L553.374 526.968L536.88 539.742L535.495 540.767L516.117 555.787Z" fill="black"/>
<path d="M532.516 503.361L526.098 501.01L525.907 476.211L532.288 473.762L532.516 503.361ZM505.844 488.926L528.156 498.194L529.601 498.823L549.345 506.991L549.404 514.591L490.405 489.046L549.002 462.592L549.061 470.192L529.924 478.5L528.329 479.152L505.844 488.926Z" fill="black"/>
<path d="M532.54 503.514L526.121 501.163L525.93 476.364L532.311 473.915L532.54 503.514ZM505.867 489.079L528.18 498.347L529.624 498.976L549.368 507.144L549.427 514.744L490.428 489.199L549.025 462.745L549.084 470.345L529.948 478.653L528.352 479.306L505.867 489.079Z" fill="black"/>
<path d="M534.737 441.278L529.113 437.394L535.144 413.339L541.935 412.567L534.737 441.278ZM512.534 420.619L531.811 435.184L533.052 436.155L550.118 449.011L548.27 456.383L497.558 416.864L560.916 405.944L559.067 413.316L538.459 416.562L536.752 416.793L512.534 420.619Z" fill="black"/>
<path d="M534.76 441.431L529.136 437.547L535.167 413.492L541.958 412.72L534.76 441.431ZM512.558 420.772L531.834 435.337L533.075 436.308L550.141 449.164L548.293 456.536L497.581 417.017L560.939 406.097L559.091 413.469L538.483 416.715L536.775 416.946L512.558 420.772Z" fill="black"/>
<path d="M551.961 382.965L547.478 377.805L559.296 356.002L566.066 356.942L551.961 382.965ZM535.587 357.437L550.641 376.335L551.602 377.584L564.939 394.276L561.317 400.958L522.013 350.08L586.097 355.242L582.475 361.924L561.707 359.948L559.995 359.748L535.587 357.437Z" fill="black"/>
<path d="M551.984 383.118L547.501 377.958L559.319 356.155L566.09 357.095L551.984 383.118ZM535.61 357.59L550.664 376.488L551.625 377.737L564.962 394.429L561.34 401.111L522.036 350.233L586.12 355.395L582.499 362.077L561.73 360.101L560.019 359.901L535.61 357.59Z" fill="black"/>
<path d="M582.998 330.809L579.924 324.704L596.745 306.481L603.076 309.059L582.998 330.809ZM573.412 302.036L583.351 324.058L583.975 325.505L592.793 344.967L587.638 350.551L562.067 291.563L622.909 312.342L617.754 317.926L598.111 310.899L596.501 310.284L573.412 302.036Z" fill="black"/>
<path d="M583.021 330.962L579.947 324.857L596.768 306.634L603.099 309.212L583.021 330.962ZM573.435 302.189L583.374 324.211L583.998 325.658L592.816 345.12L587.661 350.704L562.09 291.716L622.932 312.495L617.777 318.079L598.134 311.052L596.524 310.437L573.435 302.189Z" fill="black"/>
<path d="M626.995 287.007L625.535 280.329L646.36 266.863L651.851 270.934L626.995 287.007ZM624.866 256.754L629.015 280.556L629.26 282.112L632.959 303.156L626.577 307.283L616.483 243.789L670.244 279.047L663.862 283.174L646.584 271.482L645.178 270.486L624.866 256.754Z" fill="black"/>
<path d="M627.018 287.16L625.558 280.482L646.383 267.016L651.874 271.087L627.018 287.16ZM624.89 256.907L629.039 280.709L629.283 282.265L632.983 303.309L626.601 307.436L616.506 243.942L670.267 279.2L663.885 283.327L646.607 271.635L645.201 270.639L624.89 256.907Z" fill="black"/>
<path d="M678.541 256.387L678.771 249.555L702.271 241.634L706.59 246.932L678.541 256.387ZM683.93 226.542L682.088 250.632L681.942 252.201L680.344 273.508L673.142 275.935L678.998 211.911L722.418 259.325L715.216 261.753L701.351 246.165L700.233 244.853L683.93 226.542Z" fill="black"/>
<path d="M678.564 256.54L678.794 249.708L702.294 241.787L706.613 247.085L678.564 256.54ZM683.953 226.695L682.111 250.785L681.965 252.354L680.367 273.661L673.165 276.088L679.021 212.064L722.441 259.478L715.239 261.906L701.374 246.318L700.256 245.006L683.953 226.695Z" fill="black"/>
<path d="M737.486 239.101L739.411 232.542L764.145 230.726L767.007 236.933L737.486 239.101ZM750.142 211.54L742.356 234.412L741.823 235.895L734.967 256.131L727.387 256.688L749.012 196.142L779.248 252.88L771.668 253.436L762.124 234.885L761.368 233.336L750.142 211.54Z" fill="black"/>
<path d="M737.51 239.254L739.435 232.695L764.168 230.879L767.03 237.086L737.51 239.254ZM750.165 211.693L742.379 234.565L741.847 236.048L734.99 256.284L727.41 256.841L749.035 196.295L779.271 253.033L771.691 253.589L762.147 235.038L761.392 233.49L750.165 211.693Z" fill="black"/>
<path d="M800.643 237.187L804.155 231.323L828.551 235.783L829.761 242.51L800.643 237.187ZM819.821 213.693L806.536 233.872L805.647 235.174L793.923 253.037L786.447 251.67L822.598 198.504L837.6 261.022L830.123 259.655L825.549 239.3L825.208 237.611L819.821 213.693Z" fill="black"/>
<path d="M800.667 237.34L804.179 231.476L828.574 235.936L829.784 242.663L800.667 237.34ZM819.845 213.846L806.559 234.025L805.67 235.327L793.947 253.19L786.471 251.823L822.621 198.657L837.623 261.175L830.147 259.808L825.573 239.453L825.231 237.764L819.845 213.846Z" fill="black"/>
<path d="M860.681 250.816L865.548 246.017L888.052 256.439L887.54 263.255L860.681 250.816ZM885.126 232.867L867.214 249.081L866.029 250.119L850.209 264.481L843.312 261.287L891.615 218.857L890.498 283.139L883.602 279.945L884.266 259.094L884.357 257.373L885.126 232.867Z" fill="black"/>
<path d="M860.704 250.969L865.571 246.17L888.075 256.592L887.563 263.408L860.704 250.969ZM885.149 233.02L867.238 249.234L866.052 250.272L850.232 264.634L843.336 261.44L891.638 219.01L890.522 283.292L883.625 280.098L884.289 259.247L884.38 257.526L885.149 233.02Z" fill="black"/>
<path d="M914.96 278.753L920.863 275.306L940.091 290.97L937.909 297.447L914.96 278.753ZM943.085 267.407L921.72 278.688L920.314 279.4L901.434 289.403L895.542 284.603L952.837 255.436L935.858 317.445L929.966 312.645L935.765 292.606L936.28 290.961L943.085 267.407Z" fill="black"/>
<path d="M914.983 278.906L920.886 275.459L940.114 291.123L937.932 297.6L914.983 278.906ZM943.108 267.56L921.743 278.841L920.338 279.553L901.457 289.556L895.565 284.756L952.86 255.589L935.881 317.598L929.989 312.798L935.789 292.759L936.303 291.114L943.108 267.56Z" fill="black"/>
<path d="M960.407 318.885L966.974 316.989L981.781 336.883L978.08 342.63L960.407 318.885ZM990.454 314.771L966.977 320.477L965.44 320.823L944.685 325.9L940.147 319.803L1002.84 305.552L971.195 361.517L966.657 355.42L977.187 337.411L978.089 335.942L990.454 314.771Z" fill="black"/>
<path d="M960.43 319.038L966.997 317.142L981.804 337.036L978.103 342.783L960.43 319.038ZM990.477 314.924L967 320.63L965.463 320.976L944.708 326.053L940.171 319.956L1002.86 305.705L971.218 361.67L966.681 355.573L977.21 337.564L978.112 336.095L990.477 314.924Z" fill="black"/>
<path d="M995.024 369.63L1001.86 369.424L1011.26 392.372L1006.25 397.02L995.024 369.63ZM1025.15 373.105L1000.99 372.804L999.418 372.758L978.053 372.522L975.171 365.489L1039.44 367.25L994.889 413.606L992.007 406.573L1006.68 391.742L1007.92 390.543L1025.15 373.105Z" fill="black"/>
<path d="M995.047 369.783L1001.88 369.577L1011.28 392.525L1006.27 397.173L995.047 369.783ZM1025.17 373.258L1001.02 372.957L999.441 372.911L978.076 372.675L975.194 365.642L1039.46 367.403L994.912 413.759L992.031 406.726L1006.7 391.895L1007.94 390.696L1025.17 373.258Z" fill="black"/>
<path d="M1016 427.946L1022.66 429.464L1026 454.039L1019.98 457.277L1016 427.946ZM1044.28 438.883L1020.98 432.518L1019.46 432.078L998.844 426.479L997.822 418.948L1059.58 436.807L1004.81 470.476L1003.79 462.945L1021.72 452.278L1023.22 451.428L1044.28 438.883Z" fill="black"/>
<path d="M1016.02 428.099L1022.68 429.617L1026.02 454.192L1020 457.43L1016.02 428.099ZM1044.31 439.036L1021 432.671L1019.49 432.231L998.867 426.632L997.846 419.101L1059.61 436.96L1004.84 470.629L1003.81 463.098L1021.74 452.431L1023.24 451.581L1044.31 439.036Z" fill="black"/>
<path d="M967.739 492.975L971.455 493.55L970.072 502.484C969.786 504.329 969.845 506.038 970.249 507.612C970.654 509.185 971.396 510.488 972.478 511.519C973.56 512.549 974.97 513.2 976.71 513.469C979.345 513.877 981.517 513.268 983.225 511.644C984.987 510.028 986.083 507.823 986.516 505.03L987.678 497.519L944.196 490.788L942.911 499.089C942.544 501.461 942.644 503.608 943.21 505.531C943.767 507.506 944.759 509.117 946.185 510.363C947.603 511.662 949.446 512.487 951.712 512.837C953.398 513.098 954.945 513.041 956.353 512.665C957.76 512.29 958.998 511.618 960.065 510.649C961.124 509.734 961.979 508.571 962.629 507.161C963.332 505.758 963.822 504.161 964.099 502.369L965.604 492.645L969.32 493.22L967.815 502.944C967.399 505.632 966.725 508.065 965.795 510.241C964.864 512.418 963.662 514.256 962.189 515.754C960.76 517.314 959.05 518.426 957.059 519.089C955.067 519.752 952.806 519.888 950.276 519.496C946.64 518.933 943.74 517.621 941.576 515.559C939.457 513.558 938.012 511.041 937.241 508.007C936.513 505.034 936.427 501.756 936.982 498.172L939.307 483.15L994.648 491.717L992.445 505.947C991.931 509.268 990.986 512.063 989.609 514.332C988.224 516.654 986.398 518.342 984.131 519.394C981.916 520.454 979.227 520.739 976.065 520.25C973.482 519.85 971.374 518.822 969.742 517.166C968.109 515.511 967.01 513.371 966.445 510.747C965.872 508.175 965.842 505.229 966.356 501.909L967.739 492.975Z" fill="black"/>
<path d="M967.739 492.975L971.455 493.55L970.072 502.484C969.786 504.329 969.845 506.038 970.249 507.612C970.654 509.185 971.396 510.488 972.478 511.519C973.56 512.549 974.97 513.2 976.71 513.469C979.345 513.877 981.517 513.268 983.225 511.644C984.987 510.028 986.083 507.823 986.516 505.03L987.678 497.519L944.196 490.788L942.911 499.089C942.544 501.461 942.644 503.608 943.21 505.531C943.767 507.506 944.759 509.117 946.185 510.363C947.603 511.662 949.446 512.487 951.712 512.837C953.398 513.098 954.945 513.041 956.353 512.665C957.76 512.29 958.998 511.618 960.065 510.649C961.124 509.734 961.979 508.571 962.629 507.161C963.332 505.758 963.822 504.161 964.099 502.369L965.604 492.645L969.32 493.22L967.815 502.944C967.399 505.632 966.725 508.065 965.795 510.241C964.864 512.418 963.662 514.256 962.189 515.754C960.76 517.314 959.05 518.426 957.059 519.089C955.067 519.752 952.806 519.888 950.276 519.496C946.64 518.933 943.74 517.621 941.576 515.559C939.457 513.558 938.012 511.041 937.241 508.007C936.513 505.034 936.427 501.756 936.982 498.172L939.307 483.15L994.648 491.717L992.445 505.947C991.931 509.268 990.986 512.063 989.609 514.332C988.224 516.654 986.398 518.342 984.131 519.394C981.916 520.454 979.227 520.739 976.065 520.25C973.482 519.85 971.374 518.822 969.742 517.166C968.109 515.511 967.01 513.371 966.445 510.747C965.872 508.175 965.842 505.229 966.356 501.909L967.739 492.975Z" fill="black"/>
<path d="M954.91 550.973L958.269 552.662L954.208 560.739C953.369 562.406 952.9 564.051 952.801 565.673C952.702 567.295 953.009 568.762 953.722 570.076C954.434 571.389 955.577 572.441 957.149 573.232C959.531 574.43 961.785 574.518 963.91 573.498C966.083 572.501 967.804 570.74 969.074 568.214L972.488 561.424L933.178 541.658L929.405 549.162C928.327 551.306 927.761 553.38 927.709 555.384C927.633 557.435 928.082 559.272 929.056 560.896C930.006 562.568 931.506 563.919 933.555 564.949C935.08 565.716 936.569 566.137 938.024 566.212C939.479 566.287 940.863 566.027 942.176 565.434C943.465 564.888 944.636 564.044 945.688 562.902C946.788 561.783 947.745 560.414 948.56 558.794L952.98 550.003L956.339 551.692L951.919 560.483C950.697 562.913 949.309 565.021 947.754 566.806C946.2 568.592 944.491 569.971 942.629 570.945C940.79 571.99 938.821 572.522 936.722 572.541C934.623 572.56 932.43 571.995 930.143 570.845C926.855 569.192 924.498 567.052 923.073 564.425C921.672 561.869 921.07 559.03 921.268 555.906C921.49 552.853 922.415 549.707 924.044 546.467L930.873 532.887L980.904 558.045L974.435 570.91C972.925 573.912 971.167 576.281 969.159 578.017C967.128 579.802 964.871 580.846 962.39 581.15C959.957 581.479 957.31 580.924 954.451 579.487C952.117 578.313 950.427 576.687 949.382 574.609C948.337 572.532 947.949 570.158 948.218 567.487C948.462 564.864 949.339 562.051 950.849 559.05L954.91 550.973Z" fill="black"/>
<path d="M954.91 550.973L958.269 552.662L954.208 560.739C953.369 562.406 952.9 564.051 952.801 565.673C952.702 567.295 953.009 568.762 953.721 570.076C954.434 571.389 955.576 572.441 957.149 573.232C959.531 574.43 961.785 574.518 963.91 573.498C966.083 572.501 967.804 570.74 969.074 568.214L972.488 561.424L933.178 541.658L929.405 549.162C928.327 551.306 927.761 553.38 927.709 555.384C927.633 557.435 928.082 559.272 929.056 560.896C930.006 562.568 931.506 563.919 933.555 564.949C935.08 565.716 936.569 566.137 938.024 566.212C939.479 566.287 940.863 566.027 942.176 565.434C943.465 564.888 944.636 564.044 945.688 562.902C946.788 561.783 947.745 560.414 948.559 558.794L952.98 550.003L956.339 551.692L951.919 560.483C950.697 562.913 949.308 565.021 947.754 566.806C946.2 568.592 944.491 569.971 942.629 570.945C940.79 571.99 938.821 572.522 936.722 572.541C934.623 572.56 932.43 571.995 930.143 570.845C926.855 569.192 924.498 567.052 923.073 564.425C921.672 561.869 921.07 559.03 921.268 555.906C921.49 552.853 922.415 549.707 924.044 546.467L930.873 532.887L980.904 558.045L974.435 570.91C972.925 573.912 971.167 576.281 969.159 578.017C967.128 579.802 964.871 580.846 962.39 581.15C959.957 581.479 957.31 580.924 954.451 579.487C952.117 578.313 950.427 576.687 949.382 574.609C948.337 572.532 947.949 570.158 948.218 567.487C948.462 564.864 949.339 562.051 950.849 559.05L954.91 550.973Z" fill="black"/>
<path d="M924.622 602.512L927.294 605.157L920.935 611.582C919.621 612.908 918.667 614.328 918.071 615.839C917.476 617.351 917.314 618.841 917.585 620.311C917.857 621.78 918.618 623.134 919.869 624.372C921.764 626.248 923.88 627.029 926.216 626.715C928.591 626.439 930.772 625.297 932.761 623.288L938.107 617.886L906.836 586.933L900.927 592.903C899.238 594.609 898.06 596.406 897.39 598.295C896.684 600.222 896.543 602.109 896.967 603.954C897.354 605.838 898.362 607.586 899.992 609.2C901.205 610.4 902.491 611.261 903.852 611.782C905.212 612.303 906.608 612.485 908.041 612.327C909.435 612.206 910.81 611.766 912.163 611.004C913.555 610.281 914.889 609.274 916.164 607.986L923.087 600.992L925.759 603.637L918.837 610.631C916.923 612.564 914.951 614.139 912.921 615.356C910.891 616.573 908.839 617.357 906.767 617.707C904.695 618.133 902.658 618.03 900.656 617.399C898.654 616.768 896.743 615.552 894.924 613.751C892.308 611.162 890.729 608.399 890.186 605.46C889.644 602.596 889.949 599.71 891.104 596.8C892.258 593.966 894.111 591.26 896.662 588.682L907.355 577.879L947.155 617.274L937.025 627.509C934.661 629.897 932.257 631.606 929.81 632.637C927.327 633.705 924.858 634.001 922.404 633.523C919.989 633.083 917.643 631.737 915.369 629.486C913.512 627.648 912.408 625.579 912.056 623.28C911.705 620.982 912.07 618.604 913.151 616.147C914.195 613.728 915.899 611.325 918.262 608.937L924.622 602.512Z" fill="black"/>
<path d="M924.622 602.512L927.294 605.157L920.935 611.582C919.621 612.908 918.667 614.328 918.071 615.839C917.476 617.351 917.314 618.841 917.585 620.311C917.857 621.78 918.618 623.134 919.869 624.372C921.764 626.248 923.88 627.029 926.216 626.715C928.591 626.439 930.772 625.297 932.761 623.288L938.107 617.886L906.836 586.933L900.927 592.903C899.238 594.609 898.06 596.406 897.39 598.295C896.684 600.222 896.543 602.109 896.967 603.954C897.354 605.838 898.362 607.586 899.992 609.2C901.205 610.4 902.491 611.261 903.852 611.782C905.212 612.303 906.608 612.485 908.041 612.327C909.435 612.206 910.81 611.766 912.163 611.004C913.555 610.281 914.889 609.274 916.164 607.986L923.087 600.992L925.759 603.637L918.837 610.631C916.923 612.564 914.951 614.139 912.921 615.356C910.891 616.573 908.839 617.357 906.767 617.707C904.695 618.133 902.658 618.03 900.656 617.399C898.654 616.768 896.743 615.552 894.924 613.751C892.308 611.162 890.729 608.399 890.186 605.46C889.644 602.596 889.949 599.71 891.104 596.8C892.258 593.966 894.111 591.26 896.662 588.682L907.355 577.879L947.155 617.274L937.025 627.509C934.661 629.897 932.257 631.606 929.81 632.637C927.327 633.705 924.858 634.001 922.404 633.523C919.989 633.083 917.643 631.737 915.369 629.486C913.512 627.648 912.408 625.579 912.056 623.28C911.705 620.982 912.07 618.604 913.151 616.147C914.195 613.728 915.899 611.325 918.262 608.937L924.622 602.512Z" fill="black"/>
<path d="M880.161 642.026L881.896 645.362L873.875 649.532C872.219 650.393 870.876 651.452 869.846 652.708C868.816 653.965 868.206 655.335 868.014 656.816C867.823 658.298 868.133 659.82 868.945 661.382C870.175 663.748 871.951 665.139 874.271 665.556C876.616 666.02 879.043 665.6 881.551 664.296L888.294 660.79L867.998 621.751L860.545 625.626C858.415 626.733 856.743 628.083 855.528 629.676C854.265 631.295 853.553 633.047 853.392 634.934C853.184 636.846 853.609 638.819 854.666 640.854C855.454 642.368 856.415 643.581 857.551 644.494C858.686 645.406 859.96 646.006 861.372 646.294C862.737 646.607 864.18 646.608 865.702 646.297C867.248 646.034 868.826 645.485 870.434 644.648L879.165 640.109L880.899 643.446L872.169 647.984C869.755 649.239 867.396 650.135 865.091 650.672C862.785 651.21 860.593 651.328 858.513 651.027C856.41 650.797 854.502 650.076 852.789 648.863C851.076 647.649 849.629 645.907 848.449 643.636C846.751 640.37 846.094 637.256 846.476 634.292C846.836 631.4 848.011 628.745 850 626.329C851.967 623.984 854.559 621.975 857.777 620.302L871.264 613.291L897.095 662.977L884.318 669.619C881.337 671.169 878.524 672.061 875.88 672.293C873.189 672.55 870.748 672.076 868.558 670.87C866.393 669.712 864.572 667.713 863.096 664.873C861.891 662.555 861.473 660.247 861.842 657.952C862.211 655.656 863.287 653.504 865.068 651.496C866.802 649.512 869.159 647.746 872.141 646.196L880.161 642.026Z" fill="black"/>
<path d="M880.162 642.026L881.896 645.362L873.875 649.532C872.219 650.393 870.876 651.452 869.846 652.708C868.816 653.965 868.206 655.335 868.015 656.816C867.823 658.298 868.134 659.82 868.945 661.382C870.175 663.748 871.951 665.139 874.271 665.556C876.616 666.02 879.043 665.6 881.551 664.296L888.294 660.79L867.998 621.751L860.545 625.626C858.416 626.733 856.743 628.083 855.528 629.676C854.265 631.295 853.553 633.047 853.392 634.934C853.184 636.846 853.609 638.819 854.667 640.854C855.454 642.368 856.415 643.581 857.551 644.494C858.686 645.406 859.96 646.006 861.372 646.294C862.737 646.607 864.18 646.608 865.702 646.297C867.248 646.034 868.826 645.485 870.435 644.648L879.165 640.109L880.9 643.446L872.169 647.984C869.756 649.239 867.396 650.135 865.091 650.672C862.785 651.21 860.593 651.328 858.513 651.027C856.41 650.797 854.502 650.076 852.789 648.863C851.076 647.649 849.63 645.907 848.449 643.636C846.751 640.37 846.094 637.256 846.476 634.292C846.836 631.4 848.011 628.745 850 626.329C851.967 623.984 854.56 621.975 857.777 620.302L871.264 613.291L897.095 662.977L884.318 669.619C881.337 671.169 878.524 672.061 875.88 672.293C873.189 672.55 870.748 672.076 868.558 670.87C866.393 669.712 864.573 667.713 863.096 664.873C861.891 662.555 861.473 660.247 861.842 657.952C862.212 655.656 863.287 653.504 865.068 651.496C866.802 649.512 869.16 647.746 872.141 646.196L880.162 642.026Z" fill="black"/>
<path d="M825.626 665.958L826.233 669.669L817.311 671.128C815.469 671.429 813.863 672.017 812.492 672.889C811.122 673.762 810.115 674.872 809.471 676.221C808.826 677.569 808.646 679.112 808.931 680.849C809.361 683.48 810.614 685.356 812.688 686.476C814.772 687.648 817.208 688.006 819.998 687.55L827.498 686.323L820.394 642.9L812.105 644.256C809.736 644.644 807.726 645.405 806.074 646.54C804.37 647.683 803.147 649.126 802.405 650.869C801.611 652.62 801.399 654.627 801.769 656.891C802.044 658.575 802.579 660.028 803.373 661.249C804.168 662.47 805.191 663.437 806.442 664.151C807.641 664.874 809.012 665.325 810.555 665.505C812.106 665.738 813.776 665.708 815.566 665.415L825.277 663.826L825.884 667.537L816.173 669.126C813.489 669.565 810.968 669.68 808.61 669.471C806.252 669.263 804.131 668.691 802.249 667.756C800.323 666.882 798.735 665.601 797.487 663.914C796.238 662.227 795.407 660.12 794.993 657.594C794.399 653.962 794.746 650.798 796.035 648.101C797.279 645.466 799.223 643.31 801.867 641.635C804.467 640.02 807.557 638.92 811.136 638.335L826.137 635.881L835.177 691.146L820.966 693.471C817.65 694.014 814.7 693.983 812.115 693.379C809.478 692.784 807.307 691.571 805.603 689.743C803.907 687.966 802.801 685.499 802.284 682.341C801.863 679.762 802.185 677.44 803.252 675.374C804.319 673.308 806.012 671.598 808.331 670.246C810.597 668.903 813.388 667.96 816.704 667.417L825.626 665.958Z" fill="black"/>
<path d="M825.626 665.958L826.233 669.669L817.311 671.128C815.469 671.429 813.863 672.017 812.492 672.889C811.122 673.762 810.115 674.872 809.471 676.221C808.826 677.569 808.646 679.112 808.931 680.849C809.361 683.48 810.614 685.356 812.688 686.476C814.772 687.648 817.208 688.006 819.998 687.55L827.498 686.323L820.394 642.9L812.105 644.256C809.736 644.644 807.726 645.405 806.074 646.54C804.37 647.683 803.147 649.126 802.405 650.869C801.611 652.62 801.399 654.627 801.769 656.891C802.044 658.575 802.579 660.028 803.373 661.249C804.168 662.47 805.191 663.437 806.442 664.151C807.641 664.874 809.012 665.325 810.555 665.505C812.106 665.738 813.776 665.708 815.566 665.415L825.277 663.826L825.884 667.537L816.173 669.126C813.489 669.565 810.968 669.68 808.61 669.471C806.252 669.263 804.131 668.691 802.249 667.756C800.323 666.882 798.735 665.601 797.487 663.914C796.238 662.227 795.407 660.12 794.993 657.594C794.399 653.962 794.746 650.798 796.035 648.101C797.279 645.466 799.223 643.31 801.867 641.635C804.467 640.02 807.557 638.92 811.136 638.335L826.137 635.881L835.177 691.146L820.966 693.471C817.65 694.014 814.7 693.983 812.115 693.379C809.478 692.784 807.307 691.571 805.603 689.743C803.907 687.966 802.801 685.499 802.284 682.341C801.863 679.762 802.185 677.44 803.252 675.374C804.319 673.308 806.012 671.598 808.331 670.246C810.597 668.903 813.388 667.96 816.704 667.417L825.626 665.958Z" fill="black"/>
<path d="M765.645 671.73L765.066 675.445L756.134 674.054C754.29 673.767 752.58 673.825 751.006 674.228C749.432 674.63 748.129 675.372 747.097 676.453C746.066 677.533 745.414 678.943 745.143 680.682C744.733 683.317 745.339 685.49 746.962 687.2C748.577 688.963 750.781 690.061 753.574 690.496L761.083 691.666L767.853 648.189L759.553 646.897C757.182 646.528 755.034 646.625 753.111 647.189C751.136 647.745 749.524 648.736 748.277 650.161C746.976 651.578 746.15 653.419 745.797 655.685C745.535 657.372 745.591 658.919 745.965 660.326C746.34 661.734 747.01 662.972 747.978 664.04C748.892 665.1 750.054 665.956 751.464 666.607C752.866 667.311 754.463 667.803 756.254 668.082L765.977 669.596L765.399 673.311L755.676 671.797C752.988 671.379 750.557 670.703 748.381 669.77C746.205 668.838 744.368 667.634 742.871 666.16C741.312 664.73 740.202 663.018 739.541 661.026C738.88 659.034 738.746 656.773 739.14 654.244C739.706 650.608 741.021 647.709 743.085 645.547C745.088 643.43 747.606 641.987 750.641 641.218C753.614 640.494 756.893 640.41 760.476 640.968L775.495 643.307L766.879 698.64L752.651 696.425C749.331 695.908 746.537 694.96 744.268 693.581C741.948 692.194 740.262 690.367 739.212 688.098C738.154 685.882 737.871 683.193 738.363 680.031C738.765 677.449 739.795 675.342 741.452 673.711C743.109 672.08 745.25 670.983 747.875 670.42C750.447 669.849 753.393 669.822 756.713 670.339L765.645 671.73Z" fill="black"/>
<path d="M765.645 671.73L765.067 675.445L756.134 674.054C754.29 673.767 752.58 673.825 751.006 674.228C749.432 674.63 748.129 675.372 747.098 676.453C746.066 677.533 745.414 678.943 745.144 680.682C744.733 683.317 745.34 685.49 746.962 687.2C748.577 688.963 750.781 690.061 753.574 690.496L761.084 691.666L767.853 648.189L759.553 646.897C757.182 646.528 755.035 646.625 753.111 647.189C751.136 647.745 749.524 648.736 748.277 650.161C746.977 651.578 746.15 653.419 745.797 655.685C745.535 657.372 745.591 658.919 745.965 660.326C746.34 661.734 747.011 662.972 747.978 664.04C748.892 665.1 750.054 665.956 751.464 666.607C752.866 667.311 754.463 667.803 756.255 668.082L765.977 669.596L765.399 673.311L755.676 671.797C752.988 671.379 750.557 670.703 748.381 669.77C746.205 668.838 744.368 667.634 742.871 666.16C741.312 664.73 740.202 663.018 739.541 661.026C738.88 659.034 738.746 656.773 739.14 654.244C739.706 650.608 741.021 647.709 743.085 645.547C745.088 643.43 747.606 641.987 750.641 641.218C753.614 640.494 756.893 640.41 760.476 640.968L775.495 643.307L766.879 698.64L752.651 696.425C749.331 695.908 746.537 694.96 744.269 693.581C741.948 692.194 740.262 690.367 739.212 688.098C738.154 685.882 737.871 683.193 738.363 680.031C738.765 677.449 739.795 675.342 741.452 673.711C743.109 672.08 745.25 670.983 747.875 670.42C750.447 669.849 753.393 669.822 756.713 670.339L765.645 671.73Z" fill="black"/>
<path d="M707.618 658.778L705.92 662.133L697.854 658.053C696.188 657.21 694.544 656.737 692.923 656.634C691.302 656.532 689.833 656.835 688.518 657.544C687.203 658.254 686.148 659.394 685.354 660.964C684.15 663.344 684.056 665.597 685.072 667.725C686.064 669.9 687.821 671.625 690.343 672.901L697.125 676.332L716.985 637.069L709.489 633.277C707.348 632.194 705.275 631.624 703.272 631.567C701.221 631.486 699.382 631.93 697.756 632.901C696.082 633.847 694.727 635.343 693.692 637.39C692.922 638.913 692.498 640.401 692.419 641.856C692.341 643.311 692.597 644.695 693.187 646.01C693.73 647.3 694.571 648.473 695.711 649.528C696.827 650.63 698.194 651.591 699.812 652.409L708.592 656.85L706.895 660.206L698.115 655.764C695.688 654.536 693.583 653.143 691.802 651.585C690.02 650.026 688.644 648.314 687.675 646.449C686.634 644.608 686.107 642.638 686.093 640.539C686.079 638.44 686.649 636.248 687.805 633.964C689.466 630.68 691.612 628.328 694.242 626.91C696.8 625.514 699.642 624.919 702.765 625.124C705.817 625.353 708.961 626.286 712.197 627.923L725.761 634.784L700.484 684.755L687.635 678.255C684.636 676.739 682.271 674.975 680.54 672.963C678.76 670.927 677.721 668.669 677.423 666.187C677.1 663.752 677.661 661.107 679.105 658.252C680.285 655.92 681.915 654.234 683.995 653.194C686.075 652.154 688.45 651.772 691.12 652.047C693.742 652.297 696.553 653.181 699.551 654.698L707.618 658.778Z" fill="black"/>
<path d="M707.618 658.778L705.92 662.133L697.854 658.053C696.188 657.21 694.544 656.737 692.923 656.634C691.302 656.532 689.833 656.835 688.518 657.544C687.203 658.254 686.148 659.394 685.354 660.964C684.15 663.344 684.056 665.597 685.072 667.725C686.064 669.9 687.821 671.625 690.343 672.901L697.125 676.332L716.985 637.069L709.489 633.277C707.348 632.194 705.275 631.624 703.272 631.567C701.221 631.486 699.382 631.93 697.756 632.901C696.082 633.847 694.727 635.343 693.692 637.39C692.922 638.913 692.498 640.401 692.419 641.856C692.341 643.311 692.597 644.695 693.187 646.01C693.73 647.3 694.571 648.473 695.711 649.528C696.827 650.63 698.194 651.591 699.812 652.409L708.592 656.85L706.895 660.206L698.115 655.764C695.688 654.536 693.583 653.143 691.802 651.585C690.02 650.026 688.644 648.314 687.675 646.449C686.634 644.608 686.107 642.638 686.093 640.539C686.079 638.44 686.649 636.248 687.805 633.964C689.466 630.68 691.612 628.328 694.242 626.91C696.8 625.514 699.642 624.919 702.765 625.124C705.817 625.353 708.961 626.286 712.197 627.923L725.761 634.784L700.484 684.755L687.635 678.255C684.636 676.739 682.271 674.975 680.54 672.963C678.76 670.927 677.721 668.669 677.423 666.187C677.1 663.752 677.661 661.107 679.105 658.252C680.285 655.92 681.915 654.234 683.995 653.194C686.075 652.154 688.45 651.772 691.12 652.047C693.742 652.297 696.553 653.181 699.551 654.698L707.618 658.778Z" fill="black"/>
<path d="M656.368 628.464L653.715 631.129L647.309 624.75C645.987 623.433 644.57 622.475 643.06 621.874C641.551 621.274 640.061 621.108 638.59 621.375C637.12 621.642 635.764 622.399 634.522 623.646C632.641 625.536 631.853 627.65 632.16 629.987C632.429 632.363 633.565 634.547 635.568 636.542L640.954 641.904L672 610.725L666.047 604.798C664.346 603.104 662.553 601.92 660.665 601.245C658.741 600.533 656.855 600.386 655.008 600.805C653.123 601.186 651.371 602.189 649.753 603.815C648.549 605.024 647.684 606.308 647.159 607.667C646.634 609.026 646.449 610.421 646.603 611.854C646.719 613.249 647.156 614.625 647.913 615.981C648.632 617.375 649.634 618.711 650.919 619.991L657.892 626.934L655.239 629.598L648.266 622.655C646.339 620.736 644.77 618.759 643.558 616.726C642.347 614.692 641.57 612.638 641.226 610.565C640.807 608.491 640.915 606.455 641.552 604.455C642.189 602.454 643.41 600.547 645.217 598.733C647.813 596.125 650.582 594.554 653.522 594.02C656.387 593.486 659.273 593.8 662.179 594.963C665.01 596.126 667.711 597.987 670.281 600.546L681.052 611.271L641.539 650.954L631.335 640.794C628.954 638.423 627.252 636.013 626.228 633.564C625.167 631.077 624.879 628.608 625.364 626.155C625.811 623.741 627.164 621.4 629.422 619.132C631.265 617.28 633.337 616.182 635.637 615.838C637.937 615.493 640.313 615.865 642.767 616.954C645.183 618.004 647.581 619.715 649.962 622.086L656.368 628.464Z" fill="black"/>
<path d="M656.368 628.464L653.715 631.129L647.309 624.75C645.987 623.433 644.57 622.475 643.061 621.874C641.551 621.274 640.061 621.108 638.591 621.375C637.12 621.642 635.764 622.399 634.523 623.646C632.641 625.536 631.854 627.65 632.16 629.987C632.429 632.363 633.566 634.547 635.569 636.542L640.954 641.904L672 610.725L666.047 604.798C664.347 603.104 662.553 601.92 660.666 601.245C658.741 600.533 656.855 600.386 655.008 600.805C653.123 601.186 651.371 602.189 649.753 603.815C648.549 605.024 647.685 606.308 647.159 607.667C646.634 609.026 646.449 610.421 646.603 611.854C646.719 613.249 647.156 614.625 647.913 615.981C648.632 617.375 649.635 618.711 650.92 619.991L657.892 626.934L655.24 629.598L648.267 622.655C646.339 620.736 644.77 618.759 643.559 616.726C642.347 614.692 641.57 612.638 641.226 610.565C640.807 608.491 640.915 606.455 641.552 604.455C642.189 602.454 643.411 600.547 645.217 598.733C647.813 596.125 650.582 594.554 653.522 594.02C656.387 593.486 659.273 593.8 662.179 594.963C665.01 596.126 667.711 597.987 670.281 600.546L681.052 611.271L641.539 650.954L631.335 640.794C628.954 638.423 627.252 636.013 626.228 633.564C625.167 631.077 624.879 628.608 625.364 626.155C625.811 623.741 627.164 621.4 629.422 619.132C631.266 617.28 633.337 616.182 635.637 615.838C637.937 615.493 640.313 615.865 642.767 616.954C645.183 618.004 647.581 619.715 649.962 622.086L656.368 628.464Z" fill="black"/>
<path d="M617.044 584.004L613.704 585.73L609.554 577.699C608.697 576.041 607.641 574.696 606.387 573.663C605.133 572.63 603.765 572.016 602.283 571.821C600.802 571.626 599.279 571.933 597.716 572.741C595.347 573.965 593.951 575.737 593.529 578.057C593.059 580.401 593.473 582.828 594.771 585.339L598.261 592.091L637.349 571.889L633.492 564.427C632.39 562.295 631.044 560.619 629.453 559.4C627.838 558.134 626.087 557.418 624.201 557.252C622.29 557.039 620.315 557.459 618.278 558.512C616.762 559.295 615.546 560.254 614.631 561.387C613.716 562.521 613.113 563.793 612.822 565.204C612.506 566.568 612.501 568.011 612.808 569.534C613.067 571.081 613.613 572.66 614.446 574.271L618.963 583.012L615.623 584.739L611.105 575.997C609.856 573.581 608.966 571.219 608.434 568.912C607.903 566.606 607.79 564.413 608.096 562.333C608.33 560.231 609.056 558.325 610.274 556.615C611.491 554.905 613.237 553.463 615.511 552.287C618.781 550.598 621.897 549.948 624.86 550.338C627.751 550.704 630.403 551.886 632.815 553.881C635.155 555.853 637.157 558.45 638.822 561.672L645.801 575.175L596.052 600.887L589.441 588.094C587.898 585.109 587.014 582.294 586.788 579.65C586.537 576.957 587.017 574.518 588.228 572.331C589.392 570.169 591.396 568.353 594.238 566.884C596.56 565.684 598.868 565.271 601.163 565.646C603.458 566.021 605.607 567.102 607.611 568.888C609.59 570.626 611.351 572.988 612.894 575.973L617.044 584.004Z" fill="black"/>
<path d="M617.044 584.004L613.704 585.73L609.554 577.699C608.697 576.041 607.641 574.696 606.387 573.663C605.133 572.63 603.765 572.016 602.283 571.821C600.802 571.626 599.279 571.933 597.716 572.741C595.347 573.965 593.951 575.737 593.529 578.057C593.059 580.401 593.473 582.828 594.771 585.339L598.261 592.091L637.349 571.889L633.492 564.427C632.39 562.295 631.044 560.619 629.453 559.4C627.838 558.134 626.087 557.418 624.201 557.252C622.29 557.039 620.315 557.459 618.278 558.512C616.762 559.295 615.546 560.254 614.631 561.387C613.716 562.521 613.113 563.793 612.822 565.204C612.506 566.568 612.501 568.011 612.808 569.534C613.067 571.081 613.613 572.66 614.446 574.271L618.963 583.012L615.623 584.739L611.105 575.997C609.856 573.581 608.966 571.219 608.434 568.912C607.903 566.606 607.79 564.413 608.096 562.333C608.33 560.231 609.056 558.325 610.274 556.615C611.491 554.905 613.237 553.463 615.511 552.287C618.781 550.598 621.897 549.948 624.86 550.338C627.751 550.704 630.403 551.886 632.815 553.881C635.155 555.853 637.157 558.45 638.822 561.672L645.801 575.175L596.052 600.887L589.441 588.094C587.898 585.109 587.014 582.294 586.788 579.65C586.537 576.957 587.017 574.518 588.228 572.331C589.392 570.169 591.396 568.353 594.238 566.884C596.56 565.684 598.868 565.271 601.163 565.646C603.458 566.021 605.607 567.102 607.611 568.888C609.59 570.626 611.351 572.988 612.894 575.973L617.044 584.004Z" fill="black"/>
<path d="M593.305 529.885L589.596 530.503L588.111 521.585C587.805 519.744 587.213 518.14 586.336 516.772C585.46 515.404 584.346 514.4 582.996 513.759C581.646 513.119 580.103 512.944 578.367 513.233C575.736 513.671 573.864 514.929 572.75 517.007C571.584 519.094 571.233 521.531 571.697 524.319L572.946 531.816L616.348 524.587L614.968 516.301C614.574 513.934 613.807 511.926 612.667 510.278C611.519 508.576 610.072 507.358 608.328 506.621C606.574 505.832 604.566 505.625 602.304 506.002C600.621 506.282 599.169 506.821 597.951 507.619C596.732 508.417 595.767 509.443 595.057 510.696C594.338 511.898 593.89 513.27 593.715 514.813C593.487 516.365 593.522 518.035 593.819 519.824L595.436 529.53L591.727 530.148L590.111 520.441C589.664 517.758 589.541 515.238 589.743 512.879C589.945 510.521 590.511 508.399 591.44 506.514C592.309 504.585 593.585 502.994 595.268 501.74C596.952 500.486 599.056 499.649 601.581 499.229C605.211 498.624 608.377 498.962 611.077 500.242C613.716 501.479 615.877 503.417 617.56 506.056C619.182 508.652 620.291 511.738 620.887 515.316L623.384 530.309L568.145 539.509L565.779 525.305C565.227 521.991 565.249 519.04 565.846 516.454C566.433 513.815 567.639 511.64 569.463 509.931C571.235 508.23 573.698 507.117 576.855 506.591C579.433 506.162 581.756 506.478 583.825 507.539C585.895 508.6 587.608 510.288 588.967 512.603C590.317 514.865 591.268 517.653 591.82 520.968L593.305 529.885Z" fill="black"/>
<path d="M593.306 529.885L589.597 530.503L588.111 521.585C587.805 519.744 587.213 518.14 586.336 516.772C585.46 515.404 584.346 514.4 582.996 513.759C581.646 513.119 580.103 512.944 578.367 513.233C575.736 513.671 573.864 514.929 572.751 517.007C571.584 519.094 571.233 521.531 571.698 524.319L572.946 531.816L616.348 524.587L614.968 516.301C614.574 513.934 613.807 511.926 612.667 510.278C611.519 508.576 610.072 507.358 608.328 506.621C606.574 505.832 604.566 505.625 602.304 506.002C600.621 506.282 599.169 506.821 597.951 507.619C596.732 508.417 595.767 509.443 595.057 510.696C594.338 511.898 593.89 513.27 593.715 514.813C593.487 516.365 593.522 518.035 593.82 519.824L595.436 529.53L591.727 530.148L590.111 520.441C589.664 517.758 589.541 515.238 589.743 512.879C589.945 510.521 590.511 508.399 591.441 506.514C592.309 504.585 593.585 502.994 595.268 501.74C596.952 500.486 599.056 499.649 601.582 499.229C605.212 498.624 608.377 498.962 611.077 500.242C613.716 501.479 615.877 503.417 617.56 506.056C619.182 508.652 620.291 511.738 620.887 515.316L623.384 530.309L568.145 539.509L565.779 525.305C565.227 521.991 565.249 519.04 565.846 516.454C566.434 513.815 567.639 511.64 569.463 509.931C571.235 508.23 573.699 507.117 576.855 506.591C579.433 506.162 581.756 506.478 583.826 507.539C585.895 508.6 587.609 510.288 588.967 512.603C590.317 514.865 591.268 517.653 591.82 520.968L593.306 529.885Z" fill="black"/>
<path d="M587.318 469.817L583.6 469.256L584.949 460.317C585.227 458.472 585.162 456.763 584.752 455.191C584.342 453.619 583.594 452.319 582.508 451.292C581.422 450.266 580.01 449.621 578.269 449.358C575.632 448.96 573.463 449.577 571.76 451.208C570.005 452.831 568.917 455.04 568.495 457.835L567.361 465.35L610.869 471.914L612.122 463.608C612.48 461.235 612.373 459.088 611.799 457.168C611.234 455.195 610.236 453.588 608.805 452.347C607.382 451.054 605.537 450.236 603.269 449.894C601.582 449.639 600.035 449.703 598.629 450.084C597.223 450.465 595.988 451.142 594.924 452.114C593.869 453.033 593.019 454.2 592.374 455.613C591.677 457.018 591.193 458.617 590.922 460.41L589.454 470.14L585.736 469.579L587.204 459.849C587.61 457.159 588.274 454.724 589.196 452.544C590.118 450.364 591.313 448.522 592.781 447.017C594.204 445.452 595.91 444.334 597.899 443.663C599.888 442.992 602.148 442.848 604.679 443.23C608.318 443.779 611.223 445.08 613.394 447.134C615.521 449.127 616.976 451.638 617.759 454.669C618.497 457.639 618.596 460.917 618.055 464.503L615.787 479.533L560.414 471.179L562.562 456.94C563.064 453.617 563.998 450.819 565.366 448.544C566.742 446.217 568.562 444.523 570.826 443.462C573.036 442.393 575.724 442.097 578.888 442.575C581.472 442.965 583.584 443.984 585.223 445.634C586.862 447.284 587.969 449.419 588.544 452.041C589.127 454.61 589.168 457.556 588.667 460.878L587.318 469.817Z" fill="black"/>
<path d="M587.318 469.817L583.6 469.256L584.949 460.317C585.227 458.472 585.162 456.763 584.752 455.191C584.342 453.619 583.594 452.319 582.508 451.292C581.422 450.266 580.01 449.621 578.269 449.358C575.632 448.96 573.463 449.577 571.76 451.208C570.005 452.831 568.917 455.04 568.495 457.835L567.361 465.35L610.869 471.914L612.122 463.608C612.48 461.235 612.373 459.088 611.799 457.168C611.234 455.195 610.236 453.588 608.805 452.347C607.382 451.054 605.537 450.236 603.269 449.894C601.582 449.639 600.035 449.703 598.629 450.084C597.223 450.465 595.988 451.142 594.924 452.114C593.869 453.033 593.019 454.2 592.374 455.613C591.677 457.018 591.193 458.617 590.922 460.41L589.454 470.14L585.736 469.579L587.204 459.849C587.61 457.159 588.274 454.724 589.196 452.544C590.118 450.364 591.313 448.522 592.781 447.017C594.204 445.452 595.91 444.334 597.899 443.663C599.888 442.992 602.148 442.848 604.679 443.23C608.318 443.779 611.223 445.08 613.394 447.134C615.521 449.127 616.976 451.638 617.759 454.669C618.497 457.639 618.596 460.917 618.055 464.503L615.787 479.533L560.414 471.179L562.562 456.94C563.064 453.617 563.998 450.819 565.366 448.544C566.742 446.217 568.562 444.523 570.826 443.462C573.036 442.393 575.724 442.097 578.888 442.575C581.472 442.965 583.584 443.984 585.223 445.634C586.862 447.284 587.969 449.419 588.544 452.041C589.127 454.61 589.168 457.556 588.667 460.878L587.318 469.817Z" fill="black"/>
<path d="M600.099 411.205L596.74 409.516L600.801 401.44C601.64 399.772 602.109 398.127 602.208 396.506C602.307 394.884 602 393.416 601.288 392.103C600.575 390.789 599.433 389.737 597.86 388.947C595.478 387.749 593.224 387.66 591.099 388.681C588.926 389.678 587.205 391.439 585.935 393.964L582.521 400.754L621.831 420.521L625.604 413.016C626.683 410.872 627.248 408.798 627.3 406.795C627.376 404.744 626.927 402.906 625.953 401.282C625.003 399.61 623.503 398.259 621.454 397.229C619.93 396.462 618.44 396.042 616.985 395.967C615.53 395.892 614.146 396.151 612.833 396.744C611.544 397.29 610.373 398.134 609.321 399.277C608.221 400.395 607.264 401.764 606.45 403.384L602.029 412.176L598.67 410.486L603.09 401.695C604.312 399.265 605.701 397.158 607.255 395.372C608.809 393.587 610.518 392.207 612.381 391.234C614.219 390.188 616.188 389.656 618.287 389.637C620.386 389.618 622.579 390.184 624.867 391.334C628.154 392.987 630.511 395.127 631.936 397.754C633.337 400.309 633.939 403.149 633.741 406.273C633.519 409.325 632.594 412.472 630.965 415.712L624.136 429.292L574.105 404.134L580.575 391.269C582.084 388.267 583.842 385.898 585.85 384.161C587.881 382.377 590.138 381.333 592.619 381.028C595.053 380.7 597.699 381.254 600.558 382.692C602.892 383.866 604.582 385.492 605.627 387.569C606.672 389.647 607.06 392.021 606.791 394.691C606.547 397.315 605.67 400.127 604.16 403.129L600.099 411.205Z" fill="black"/>
<path d="M600.099 411.205L596.74 409.516L600.801 401.44C601.64 399.772 602.109 398.127 602.208 396.506C602.307 394.884 602 393.416 601.288 392.103C600.575 390.789 599.433 389.737 597.86 388.947C595.478 387.749 593.224 387.66 591.099 388.681C588.926 389.678 587.205 391.439 585.935 393.964L582.521 400.754L621.831 420.521L625.604 413.016C626.683 410.872 627.248 408.798 627.3 406.795C627.376 404.744 626.927 402.906 625.953 401.282C625.003 399.61 623.503 398.259 621.454 397.229C619.93 396.462 618.44 396.042 616.985 395.967C615.53 395.892 614.146 396.151 612.833 396.744C611.544 397.29 610.373 398.134 609.321 399.277C608.221 400.395 607.264 401.764 606.45 403.384L602.029 412.176L598.67 410.486L603.09 401.695C604.312 399.265 605.701 397.158 607.255 395.372C608.809 393.587 610.518 392.207 612.381 391.234C614.219 390.188 616.188 389.656 618.287 389.637C620.386 389.618 622.579 390.184 624.867 391.334C628.154 392.987 630.511 395.127 631.936 397.754C633.337 400.309 633.939 403.149 633.741 406.273C633.519 409.325 632.594 412.472 630.965 415.712L624.136 429.292L574.105 404.134L580.575 391.269C582.084 388.267 583.842 385.898 585.85 384.161C587.881 382.377 590.138 381.333 592.619 381.028C595.053 380.7 597.699 381.254 600.558 382.692C602.892 383.866 604.582 385.492 605.627 387.569C606.672 389.647 607.06 392.021 606.791 394.691C606.547 397.315 605.67 400.127 604.16 403.129L600.099 411.205Z" fill="black"/>
<path d="M629.909 360.14L627.228 357.505L633.564 351.057C634.872 349.726 635.821 348.303 636.411 346.79C637.002 345.276 637.158 343.785 636.881 342.316C636.605 340.848 635.839 339.497 634.583 338.263C632.681 336.394 630.562 335.621 628.227 335.943C625.854 336.228 623.676 337.378 621.695 339.394L616.368 344.815L647.752 375.655L653.639 369.663C655.321 367.951 656.494 366.15 657.156 364.258C657.856 362.329 657.99 360.442 657.559 358.598C657.165 356.715 656.151 354.971 654.515 353.363C653.298 352.167 652.008 351.311 650.646 350.795C649.284 350.279 647.887 350.102 646.455 350.266C645.061 350.391 643.688 350.837 642.337 351.603C640.948 352.331 639.618 353.343 638.347 354.636L631.45 361.654L628.768 359.019L635.665 352.001C637.571 350.06 639.538 348.478 641.563 347.254C643.589 346.029 645.638 345.238 647.709 344.88C649.779 344.448 651.817 344.543 653.821 345.166C655.825 345.79 657.74 346.999 659.566 348.793C662.191 351.373 663.78 354.131 664.334 357.068C664.887 359.929 664.592 362.817 663.448 365.731C662.304 368.569 660.461 371.282 657.919 373.869L647.265 384.71L607.322 345.46L617.415 335.189C619.77 332.792 622.169 331.074 624.611 330.035C627.091 328.957 629.559 328.653 632.014 329.121C634.432 329.553 636.782 330.89 639.064 333.133C640.928 334.964 642.04 337.029 642.399 339.326C642.759 341.624 642.402 344.003 641.33 346.464C640.295 348.886 638.601 351.296 636.246 353.693L629.909 360.14Z" fill="black"/>
<path d="M629.91 360.14L627.228 357.505L633.564 351.057C634.872 349.726 635.821 348.303 636.412 346.79C637.002 345.276 637.158 343.785 636.882 342.316C636.605 340.848 635.839 339.497 634.583 338.263C632.681 336.394 630.563 335.621 628.227 335.943C625.854 336.228 623.676 337.378 621.695 339.394L616.368 344.815L647.752 375.655L653.639 369.663C655.322 367.951 656.494 366.15 657.156 364.258C657.856 362.329 657.99 360.442 657.559 358.598C657.166 356.715 656.151 354.971 654.515 353.363C653.298 352.167 652.008 351.311 650.646 350.795C649.284 350.279 647.887 350.102 646.455 350.266C645.061 350.391 643.688 350.837 642.337 351.603C640.948 352.331 639.618 353.343 638.347 354.636L631.45 361.654L628.768 359.019L635.665 352.001C637.572 350.06 639.538 348.478 641.564 347.254C643.589 346.029 645.638 345.238 647.709 344.88C649.78 344.448 651.817 344.543 653.821 345.166C655.825 345.79 657.741 346.999 659.567 348.793C662.191 351.373 663.781 354.131 664.334 357.068C664.887 359.929 664.592 362.817 663.448 365.731C662.304 368.569 660.461 371.282 657.919 373.869L647.265 384.71L607.323 345.46L617.416 335.189C619.771 332.792 622.169 331.074 624.612 330.035C627.091 328.957 629.559 328.653 632.014 329.121C634.432 329.553 636.782 330.89 639.064 333.133C640.928 334.964 642.04 337.029 642.399 339.326C642.759 341.624 642.403 344.003 641.33 346.464C640.296 348.886 638.601 351.296 636.246 353.693L629.91 360.14Z" fill="black"/>
<path d="M673.662 320.69L671.916 317.361L679.921 313.161C681.574 312.294 682.913 311.23 683.938 309.97C684.963 308.709 685.569 307.338 685.755 305.855C685.94 304.372 685.624 302.852 684.807 301.293C683.568 298.932 681.788 297.547 679.466 297.139C677.119 296.684 674.694 297.113 672.191 298.426L665.461 301.956L685.901 340.92L693.34 337.018C695.465 335.903 697.132 334.547 698.342 332.949C699.598 331.326 700.304 329.571 700.458 327.683C700.659 325.77 700.227 323.799 699.162 321.768C698.369 320.257 697.403 319.047 696.264 318.139C695.125 317.231 693.849 316.635 692.436 316.353C691.07 316.045 689.627 316.05 688.106 316.365C686.561 316.634 684.985 317.19 683.38 318.032L674.666 322.603L672.919 319.274L681.633 314.702C684.042 313.439 686.398 312.534 688.701 311.988C691.004 311.442 693.197 311.316 695.278 311.61C697.382 311.831 699.292 312.545 701.009 313.752C702.727 314.959 704.18 316.696 705.369 318.963C707.079 322.222 707.748 325.334 707.376 328.3C707.027 331.193 705.862 333.852 703.882 336.276C701.923 338.628 699.339 340.647 696.127 342.331L682.667 349.393L656.652 299.802L669.403 293.113C672.379 291.552 675.188 290.65 677.832 290.408C680.522 290.141 682.964 290.606 685.159 291.804C687.328 292.954 689.156 294.946 690.643 297.78C691.857 300.094 692.283 302.4 691.923 304.697C691.562 306.994 690.495 309.15 688.721 311.165C686.994 313.155 684.643 314.93 681.668 316.491L673.662 320.69Z" fill="black"/>
<path d="M673.662 320.69L671.916 317.361L679.921 313.161C681.574 312.294 682.913 311.23 683.938 309.97C684.963 308.709 685.569 307.338 685.755 305.855C685.94 304.372 685.624 302.852 684.807 301.293C683.568 298.932 681.788 297.547 679.466 297.139C677.119 296.684 674.694 297.113 672.191 298.426L665.461 301.956L685.901 340.92L693.34 337.018C695.465 335.903 697.132 334.547 698.342 332.949C699.598 331.326 700.304 329.571 700.458 327.683C700.659 325.77 700.227 323.799 699.162 321.768C698.369 320.257 697.403 319.047 696.264 318.139C695.125 317.231 693.849 316.635 692.436 316.353C691.07 316.045 689.627 316.05 688.106 316.365C686.561 316.634 684.985 317.19 683.38 318.032L674.666 322.603L672.919 319.274L681.633 314.702C684.042 313.439 686.398 312.534 688.701 311.988C691.004 311.442 693.197 311.316 695.278 311.61C697.382 311.831 699.292 312.545 701.009 313.752C702.727 314.959 704.18 316.696 705.369 318.963C707.079 322.222 707.748 325.334 707.376 328.3C707.027 331.193 705.862 333.852 703.882 336.276C701.923 338.628 699.339 340.647 696.127 342.331L682.667 349.393L656.652 299.802L669.403 293.113C672.379 291.552 675.188 290.65 677.832 290.408C680.522 290.141 682.964 290.606 685.159 291.804C687.328 292.954 689.156 294.946 690.643 297.78C691.857 300.094 692.283 302.4 691.923 304.697C691.562 306.994 690.495 309.15 688.721 311.165C686.994 313.155 684.643 314.93 681.668 316.491L673.662 320.69Z" fill="black"/>
<path d="M728.28 296.28L727.659 292.572L736.574 291.078C738.415 290.77 740.019 290.177 741.386 289.299C742.753 288.421 743.756 287.306 744.395 285.955C745.034 284.605 745.208 283.061 744.918 281.326C744.477 278.696 743.217 276.825 741.138 275.713C739.05 274.549 736.613 274.2 733.825 274.667L726.329 275.923L733.6 319.318L741.884 317.93C744.251 317.533 746.258 316.764 747.906 315.623C749.606 314.473 750.823 313.025 751.558 311.28C752.346 309.526 752.55 307.518 752.171 305.256C751.889 303.573 751.349 302.122 750.55 300.904C749.751 299.686 748.724 298.722 747.47 298.013C746.268 297.295 744.896 296.849 743.352 296.675C741.8 296.449 740.13 296.485 738.342 296.785L728.637 298.411L728.015 294.702L737.72 293.076C740.403 292.627 742.924 292.502 745.282 292.702C747.641 292.901 749.763 293.465 751.649 294.393C753.579 295.259 755.171 296.534 756.427 298.216C757.682 299.898 758.521 302.002 758.944 304.527C759.552 308.156 759.217 311.322 757.939 314.023C756.705 316.664 754.769 318.827 752.132 320.512C749.538 322.136 746.452 323.248 742.876 323.847L727.885 326.359L718.631 271.129L732.833 268.749C736.147 268.194 739.098 268.214 741.685 268.808C744.324 269.393 746.5 270.597 748.211 272.419C749.914 274.189 751.029 276.651 751.558 279.807C751.99 282.385 751.676 284.709 750.617 286.779C749.558 288.849 747.871 290.564 745.558 291.925C743.297 293.278 740.509 294.231 737.196 294.787L728.28 296.28Z" fill="black"/>
<path d="M728.28 296.28L727.659 292.572L736.574 291.078C738.415 290.77 740.019 290.177 741.387 289.299C742.754 288.421 743.757 287.306 744.395 285.955C745.034 284.605 745.208 283.061 744.918 281.326C744.477 278.696 743.217 276.825 741.138 275.713C739.051 274.549 736.613 274.2 733.825 274.667L726.329 275.923L733.6 319.318L741.884 317.93C744.251 317.533 746.259 316.764 747.906 315.623C749.606 314.473 750.823 313.025 751.558 311.28C752.346 309.526 752.55 307.518 752.171 305.256C751.889 303.573 751.349 302.122 750.55 300.904C749.751 299.686 748.725 298.722 747.47 298.013C746.268 297.295 744.896 296.849 743.352 296.675C741.8 296.449 740.13 296.485 738.342 296.785L728.637 298.411L728.016 294.702L737.72 293.076C740.403 292.627 742.924 292.502 745.282 292.702C747.641 292.901 749.763 293.465 751.649 294.393C753.579 295.259 755.172 296.534 756.427 298.216C757.682 299.898 758.521 302.002 758.944 304.527C759.552 308.156 759.217 311.322 757.939 314.023C756.705 316.664 754.77 318.827 752.132 320.512C749.538 322.136 746.453 323.248 742.876 323.847L727.885 326.359L718.631 271.129L732.834 268.749C736.147 268.194 739.098 268.214 741.685 268.808C744.324 269.393 746.5 270.597 748.211 272.419C749.914 274.189 751.029 276.651 751.558 279.807C751.99 282.385 751.676 284.709 750.617 286.779C749.558 288.849 747.872 290.564 745.558 291.925C743.297 293.278 740.51 294.231 737.196 294.787L728.28 296.28Z" fill="black"/>
<path d="M788.464 290.154L789.028 286.436L797.966 287.793C799.811 288.073 801.52 288.009 803.093 287.6C804.665 287.191 805.965 286.445 806.993 285.36C808.021 284.275 808.667 282.863 808.931 281.123C809.331 278.486 808.716 276.316 807.087 274.612C805.465 272.856 803.257 271.766 800.463 271.341L792.949 270.201L786.346 313.703L794.651 314.963C797.024 315.323 799.171 315.218 801.092 314.646C803.065 314.082 804.673 313.086 805.915 311.656C807.21 310.234 808.029 308.39 808.373 306.122C808.629 304.435 808.567 302.888 808.187 301.482C807.807 300.075 807.132 298.84 806.16 297.776C805.242 296.719 804.076 295.868 802.664 295.222C801.26 294.523 799.661 294.038 797.868 293.766L788.14 292.289L788.704 288.572L798.432 290.049C801.122 290.457 803.556 291.123 805.735 292.047C807.915 292.971 809.756 294.168 811.259 295.637C812.823 297.061 813.94 298.768 814.609 300.757C815.278 302.747 815.42 305.007 815.036 307.538C814.484 311.176 813.18 314.08 811.125 316.25C809.13 318.374 806.617 319.827 803.585 320.608C800.614 321.344 797.336 321.439 793.751 320.895L778.723 318.614L787.126 263.248L801.363 265.409C804.685 265.913 807.483 266.851 809.756 268.221C812.082 269.599 813.775 271.42 814.834 273.684C815.901 275.896 816.194 278.584 815.714 281.748C815.322 284.331 814.3 286.442 812.649 288.079C810.998 289.717 808.861 290.822 806.239 291.395C803.669 291.976 800.723 292.015 797.401 291.51L788.464 290.154Z" fill="black"/>
<path d="M788.464 290.154L789.028 286.436L797.966 287.793C799.811 288.073 801.52 288.009 803.093 287.6C804.665 287.191 805.965 286.445 806.993 285.36C808.021 284.275 808.667 282.863 808.931 281.123C809.331 278.486 808.716 276.316 807.087 274.612C805.465 272.856 803.257 271.766 800.463 271.341L792.949 270.201L786.346 313.703L794.651 314.963C797.024 315.323 799.171 315.218 801.092 314.646C803.065 314.082 804.673 313.086 805.915 311.656C807.21 310.234 808.029 308.39 808.373 306.122C808.629 304.435 808.567 302.888 808.187 301.482C807.807 300.075 807.132 298.84 806.16 297.776C805.242 296.719 804.076 295.868 802.664 295.222C801.26 294.523 799.661 294.038 797.868 293.766L788.14 292.289L788.704 288.572L798.432 290.049C801.122 290.457 803.556 291.123 805.735 292.047C807.915 292.971 809.756 294.168 811.259 295.637C812.823 297.061 813.94 298.768 814.609 300.757C815.278 302.747 815.42 305.007 815.036 307.538C814.484 311.176 813.18 314.08 811.125 316.25C809.13 318.374 806.617 319.827 803.585 320.608C800.614 321.344 797.336 321.439 793.751 320.895L778.723 318.614L787.126 263.248L801.363 265.409C804.685 265.913 807.483 266.851 809.756 268.221C812.082 269.599 813.775 271.42 814.834 273.684C815.901 275.896 816.194 278.584 815.714 281.748C815.322 284.331 814.3 286.442 812.649 288.079C810.998 289.717 808.861 290.822 806.239 291.395C803.669 291.976 800.723 292.015 797.401 291.51L788.464 290.154Z" fill="black"/>
<path d="M845.922 302.471L847.606 299.109L855.688 303.16C857.357 303.996 859.002 304.463 860.624 304.559C862.246 304.656 863.713 304.348 865.026 303.633C866.338 302.919 867.389 301.775 868.177 300.202C869.372 297.818 869.458 295.564 868.434 293.44C867.434 291.269 865.671 289.55 863.144 288.283L856.349 284.878L836.635 324.214L844.145 327.978C846.29 329.053 848.365 329.616 850.369 329.665C852.42 329.739 854.257 329.287 855.879 328.311C857.55 327.358 858.899 325.857 859.926 323.807C860.691 322.281 861.11 320.791 861.183 319.336C861.256 317.881 860.995 316.497 860.4 315.185C859.852 313.897 859.007 312.727 857.863 311.676C856.743 310.578 855.372 309.623 853.751 308.81L844.954 304.402L846.639 301.04L855.436 305.449C857.867 306.668 859.977 308.053 861.764 309.605C863.552 311.157 864.934 312.864 865.91 314.725C866.957 316.563 867.492 318.531 867.514 320.63C867.536 322.729 866.974 324.923 865.827 327.211C864.178 330.501 862.041 332.86 859.416 334.289C856.862 335.694 854.024 336.299 850.899 336.106C847.846 335.888 844.699 334.967 841.457 333.342L827.868 326.532L852.958 276.467L865.832 282.919C868.836 284.425 871.208 286.18 872.947 288.185C874.734 290.214 875.781 292.469 876.089 294.95C876.421 297.383 875.87 300.03 874.436 302.891C873.265 305.227 871.641 306.919 869.565 307.967C867.489 309.014 865.116 309.405 862.445 309.141C859.821 308.9 857.008 308.026 854.004 306.521L845.922 302.471Z" fill="black"/>
<path d="M845.922 302.471L847.606 299.109L855.688 303.16C857.357 303.996 859.002 304.463 860.624 304.559C862.246 304.656 863.713 304.348 865.026 303.633C866.338 302.919 867.389 301.775 868.177 300.202C869.372 297.818 869.458 295.564 868.434 293.44C867.434 291.269 865.671 289.55 863.144 288.283L856.349 284.878L836.635 324.214L844.145 327.978C846.29 329.053 848.365 329.616 850.369 329.665C852.42 329.739 854.257 329.287 855.879 328.311C857.55 327.358 858.899 325.857 859.926 323.807C860.691 322.281 861.11 320.791 861.183 319.336C861.256 317.881 860.995 316.497 860.4 315.185C859.852 313.897 859.007 312.727 857.863 311.676C856.743 310.578 855.372 309.623 853.751 308.81L844.954 304.402L846.639 301.04L855.436 305.449C857.867 306.668 859.977 308.053 861.764 309.605C863.552 311.157 864.934 312.864 865.91 314.725C866.957 316.563 867.492 318.531 867.514 320.63C867.536 322.729 866.974 324.923 865.827 327.211C864.178 330.501 862.041 332.86 859.416 334.289C856.862 335.694 854.024 336.299 850.899 336.106C847.846 335.888 844.699 334.967 841.457 333.342L827.868 326.532L852.958 276.467L865.832 282.919C868.836 284.425 871.208 286.18 872.947 288.185C874.734 290.214 875.781 292.469 876.089 294.95C876.421 297.383 875.87 300.03 874.436 302.891C873.265 305.227 871.641 306.919 869.565 307.967C867.489 309.014 865.116 309.405 862.445 309.141C859.821 308.9 857.008 308.026 854.004 306.521L845.922 302.471Z" fill="black"/>
<path d="M898.039 332.895L900.682 330.22L907.112 336.576C908.439 337.888 909.859 338.841 911.371 339.436C912.883 340.031 914.373 340.192 915.843 339.919C917.312 339.647 918.665 338.885 919.902 337.633C921.777 335.736 922.557 333.62 922.242 331.284C921.964 328.909 920.82 326.729 918.81 324.741L913.404 319.399L882.472 350.691L888.446 356.596C890.153 358.283 891.951 359.461 893.841 360.129C895.768 360.834 897.655 360.974 899.5 360.549C901.384 360.161 903.132 359.151 904.744 357.52C905.944 356.306 906.804 355.019 907.324 353.658C907.844 352.298 908.024 350.901 907.865 349.469C907.744 348.074 907.302 346.7 906.54 345.347C905.816 343.956 904.808 342.623 903.519 341.348L896.521 334.431L899.164 331.757L906.162 338.674C908.096 340.586 909.673 342.557 910.892 344.587C912.11 346.616 912.895 348.667 913.247 350.739C913.673 352.811 913.572 354.848 912.942 356.85C912.313 358.853 911.098 360.764 909.299 362.585C906.712 365.202 903.949 366.783 901.01 367.328C898.147 367.873 895.261 367.569 892.35 366.417C889.515 365.264 886.808 363.413 884.228 360.863L873.418 350.178L912.786 310.351L923.028 320.474C925.417 322.836 927.128 325.24 928.161 327.685C929.231 330.168 929.528 332.637 929.052 335.091C928.613 337.507 927.269 339.853 925.02 342.129C923.183 343.987 921.115 345.093 918.816 345.446C916.518 345.799 914.14 345.435 911.682 344.356C909.263 343.314 906.858 341.612 904.468 339.25L898.039 332.895Z" fill="black"/>
<path d="M898.039 332.895L900.683 330.22L907.112 336.576C908.439 337.888 909.859 338.841 911.371 339.436C912.883 340.031 914.374 340.192 915.843 339.919C917.312 339.647 918.665 338.885 919.903 337.633C921.777 335.736 922.557 333.62 922.242 331.284C921.964 328.909 920.82 326.729 918.81 324.741L913.405 319.399L882.473 350.691L888.447 356.596C890.153 358.283 891.952 359.461 893.841 360.129C895.769 360.834 897.655 360.974 899.5 360.549C901.384 360.161 903.132 359.151 904.744 357.52C905.944 356.306 906.804 355.019 907.324 353.658C907.844 352.298 908.024 350.901 907.865 349.469C907.744 348.074 907.302 346.7 906.54 345.347C905.816 343.956 904.809 342.623 903.519 341.348L896.521 334.431L899.164 331.757L906.162 338.674C908.097 340.586 909.673 342.557 910.892 344.587C912.11 346.616 912.895 348.667 913.247 350.739C913.673 352.811 913.572 354.848 912.943 356.85C912.313 358.853 911.098 360.764 909.299 362.585C906.712 365.202 903.949 366.783 901.011 367.328C898.147 367.873 895.261 367.569 892.35 366.417C889.515 365.264 886.808 363.413 884.229 360.863L873.418 350.178L912.787 310.351L923.028 320.474C925.417 322.836 927.128 325.24 928.161 327.685C929.231 330.168 929.528 332.637 929.052 335.091C928.614 337.507 927.269 339.853 925.02 342.129C923.183 343.987 921.115 345.093 918.816 345.446C916.518 345.799 914.14 345.435 911.682 344.356C909.263 343.314 906.858 341.612 904.468 339.25L898.039 332.895Z" fill="black"/>
<path d="M937.511 377.03L940.845 375.291L945.025 383.307C945.888 384.962 946.949 386.304 948.207 387.332C949.465 388.36 950.835 388.969 952.317 389.158C953.799 389.348 955.321 389.035 956.881 388.222C959.246 386.988 960.635 385.211 961.048 382.89C961.509 380.545 961.086 378.119 959.779 375.613L956.265 368.874L917.252 389.22L921.136 396.668C922.246 398.796 923.598 400.466 925.193 401.68C926.813 402.94 928.566 403.65 930.454 403.808C932.366 404.014 934.338 403.587 936.372 402.527C937.885 401.737 939.097 400.774 940.008 399.638C940.919 398.501 941.517 397.226 941.803 395.814C942.114 394.449 942.113 393.006 941.801 391.485C941.536 389.938 940.984 388.362 940.146 386.754L935.596 378.029L938.93 376.29L943.48 385.015C944.738 387.427 945.637 389.785 946.177 392.09C946.717 394.394 946.838 396.587 946.54 398.667C946.313 400.771 945.594 402.679 944.383 404.394C943.172 406.108 941.431 407.557 939.161 408.741C935.898 410.443 932.785 411.104 929.82 410.725C926.928 410.369 924.272 409.198 921.852 407.211C919.505 405.248 917.493 402.658 915.816 399.442L908.787 385.965L958.441 360.07L965.099 372.838C966.653 375.817 967.548 378.629 967.784 381.273C968.044 383.964 967.573 386.405 966.37 388.596C965.214 390.763 963.218 392.586 960.38 394.066C958.063 395.274 955.756 395.695 953.46 395.329C951.164 394.963 949.011 393.89 947 392.111C945.015 390.38 943.245 388.025 941.691 385.046L937.511 377.03Z" fill="black"/>
<path d="M937.511 377.03L940.845 375.291L945.025 383.307C945.888 384.962 946.949 386.304 948.207 387.332C949.465 388.36 950.835 388.969 952.317 389.158C953.8 389.348 955.321 389.035 956.881 388.222C959.246 386.988 960.635 385.211 961.049 382.89C961.51 380.545 961.086 378.119 959.779 375.613L956.265 368.874L917.252 389.22L921.136 396.668C922.246 398.796 923.598 400.466 925.193 401.68C926.813 402.94 928.567 403.65 930.454 403.808C932.366 404.014 934.338 403.587 936.372 402.527C937.885 401.737 939.097 400.774 940.008 399.638C940.919 398.501 941.518 397.226 941.804 395.814C942.114 394.449 942.113 393.006 941.801 391.485C941.536 389.938 940.985 388.362 940.146 386.754L935.596 378.029L938.93 376.29L943.48 385.015C944.738 387.427 945.637 389.785 946.177 392.09C946.717 394.394 946.838 396.587 946.54 398.667C946.313 400.771 945.594 402.679 944.383 404.394C943.172 406.108 941.431 407.557 939.161 408.741C935.899 410.443 932.785 411.104 929.82 410.725C926.928 410.369 924.272 409.198 921.853 407.211C919.505 405.248 917.493 402.658 915.816 399.442L908.787 385.965L958.441 360.07L965.099 372.838C966.653 375.817 967.548 378.629 967.784 381.273C968.044 383.964 967.573 386.405 966.37 388.596C965.214 390.763 963.218 392.586 960.38 394.066C958.063 395.274 955.757 395.695 953.46 395.329C951.164 394.963 949.011 393.89 947 392.111C945.015 390.38 943.245 388.025 941.691 385.046L937.511 377.03Z" fill="black"/>
<path d="M961.785 431.937L965.494 431.32L966.979 440.237C967.285 442.078 967.877 443.683 968.754 445.051C969.63 446.419 970.744 447.423 972.094 448.063C973.444 448.703 974.987 448.879 976.723 448.589C979.354 448.151 981.226 446.893 982.34 444.815C983.506 442.729 983.857 440.291 983.393 437.503L982.144 430.006L938.742 437.235L940.122 445.521C940.516 447.888 941.283 449.896 942.423 451.545C943.571 453.246 945.018 454.465 946.763 455.201C948.516 455.991 950.524 456.197 952.786 455.82C954.47 455.54 955.921 455.001 957.14 454.203C958.358 453.405 959.323 452.38 960.033 451.126C960.752 449.925 961.2 448.553 961.375 447.009C961.603 445.458 961.569 443.787 961.271 441.999L959.654 432.292L963.363 431.675L964.98 441.381C965.426 444.064 965.549 446.585 965.347 448.943C965.145 451.302 964.579 453.424 963.65 455.309C962.781 457.237 961.505 458.829 959.822 460.082C958.138 461.336 956.034 462.173 953.509 462.594C949.879 463.198 946.713 462.86 944.013 461.58C941.374 460.343 939.213 458.405 937.53 455.766C935.908 453.17 934.799 450.084 934.203 446.507L931.706 431.513L986.945 422.313L989.311 436.517C989.863 439.832 989.841 442.782 989.244 445.369C988.657 448.008 987.451 450.182 985.627 451.892C983.856 453.592 981.392 454.706 978.235 455.231C975.657 455.661 973.334 455.345 971.265 454.284C969.196 453.222 967.482 451.534 966.123 449.219C964.773 446.957 963.822 444.169 963.27 440.855L961.785 431.937Z" fill="black"/>
<path d="M961.785 431.937L965.494 431.32L966.979 440.237C967.285 442.078 967.877 443.683 968.754 445.051C969.63 446.419 970.744 447.423 972.094 448.063C973.444 448.703 974.987 448.879 976.723 448.589C979.354 448.151 981.226 446.893 982.34 444.815C983.506 442.729 983.857 440.291 983.393 437.503L982.144 430.006L938.742 437.235L940.122 445.521C940.516 447.888 941.283 449.896 942.423 451.545C943.571 453.246 945.018 454.465 946.763 455.201C948.516 455.991 950.524 456.197 952.786 455.82C954.47 455.54 955.921 455.001 957.14 454.203C958.358 453.405 959.323 452.38 960.033 451.126C960.752 449.925 961.2 448.553 961.375 447.009C961.603 445.458 961.569 443.787 961.271 441.999L959.654 432.292L963.363 431.675L964.98 441.381C965.426 444.064 965.549 446.585 965.347 448.943C965.145 451.302 964.579 453.424 963.65 455.309C962.781 457.237 961.505 458.829 959.822 460.082C958.138 461.336 956.034 462.173 953.509 462.594C949.879 463.198 946.713 462.86 944.013 461.58C941.374 460.343 939.213 458.405 937.53 455.766C935.908 453.17 934.799 450.084 934.203 446.507L931.706 431.513L986.945 422.313L989.311 436.517C989.863 439.832 989.841 442.782 989.244 445.369C988.657 448.008 987.451 450.182 985.627 451.892C983.856 453.592 981.392 454.706 978.235 455.231C975.657 455.661 973.334 455.345 971.265 454.284C969.196 453.222 967.482 451.534 966.123 449.219C964.773 446.957 963.822 444.169 963.27 440.855L961.785 431.937Z" fill="black"/>
<path d="M776.775 346.696L786.835 414.95L816.567 352.693L806.062 420.88L852.823 370.154L822.687 432.215L882.322 397.525L835.232 447.946L902.443 432.375L842.583 466.676L911.397 471.607L844.086 486.74L908.39 511.736L839.609 506.357L893.688 549.196L829.549 523.782L868.598 580.658L814.799 537.467L835.349 603.327L796.671 546.197L796.896 615.188L776.775 549.196L756.654 615.188L756.879 546.197L718.201 603.327L738.751 537.467L684.952 580.658L724.001 523.782L659.862 549.196L713.941 506.357L645.16 511.736L709.464 486.74L642.153 471.607L710.967 466.676L651.107 432.375L718.318 447.946L671.228 397.525L730.863 432.215L700.727 370.154L747.488 420.88L736.983 352.693L766.715 414.95L776.775 346.696Z" fill="#C8C8C8"/>
</svg>
